<?xml version="1.0" standalone="no"?>
<!DOCTYPE svg PUBLIC "-//W3C//DTD SVG 20010904//EN"
 "http://www.w3.org/TR/2001/REC-SVG-20010904/DTD/svg10.dtd">
<svg version="1.0" xmlns="http://www.w3.org/2000/svg"
 width="500.000000pt" height="500.000000pt" viewBox="0 0 500.000000 500.000000"
 preserveAspectRatio="xMidYMid meet">

<g transform="translate(0.000000,500.000000) scale(0.100000,-0.100000)"
fill="#f0f0f0" stroke="none">
<path d="M3492 4617 c-30 -38 -152 -265 -152 -283 0 -2 7 -1 16 3 13 5 15 2 9
-15 -4 -13 -2 -22 4 -22 28 0 0 -73 -34 -88 -16 -7 -24 -22 -29 -53 -7 -45 7
-76 24 -50 7 12 21 10 89 -12 44 -15 88 -27 98 -27 30 0 275 -126 333 -171 66
-51 150 -130 150 -141 0 -5 21 -42 46 -84 25 -42 44 -77 42 -79 -1 -2 -14 -5
-28 -7 -21 -2 -32 7 -70 66 -25 38 -70 89 -100 113 -90 72 -211 158 -267 188
-29 15 -50 31 -48 36 3 4 0 11 -6 15 -8 4 -9 3 -5 -4 10 -16 1 -15 -34 3 -37
19 -185 55 -227 55 -22 0 -43 -10 -65 -29 -31 -28 -33 -33 -33 -99 0 -63 3
-75 33 -116 17 -26 32 -49 32 -52 0 -9 52 -76 97 -126 24 -26 43 -52 43 -57 0
-5 8 -12 18 -16 9 -3 32 -19 51 -35 l35 -29 -41 -103 c-43 -108 -124 -357
-168 -518 -14 -52 -30 -99 -36 -104 -12 -13 -12 63 0 135 5 30 15 90 21 134 7
44 23 126 36 182 41 178 25 194 -21 22 -109 -402 -186 -915 -201 -1330 l-5
-156 88 -116 c52 -70 94 -117 105 -117 21 0 24 5 32 53 5 29 4 37 -4 32 -22
-14 -30 19 -28 115 l2 95 3 -87 c3 -60 8 -90 18 -98 13 -11 15 5 16 116 0 71
5 154 10 184 6 30 13 82 17 115 4 33 11 66 16 73 5 8 12 39 16 70 5 32 16 89
25 127 25 104 29 132 17 120 -11 -10 -49 -149 -71 -260 -6 -33 -16 -80 -22
-104 -5 -24 -12 -71 -16 -105 -3 -33 -9 -68 -14 -76 -16 -29 -9 37 21 197 37
193 73 336 93 366 22 33 227 247 237 247 10 0 21 -31 86 -230 26 -80 89 -236
140 -348 52 -111 94 -205 94 -208 0 -7 41 -96 88 -194 86 -175 270 -405 398
-496 62 -44 174 -100 174 -86 0 4 -28 21 -61 37 -73 36 -212 163 -273 249 -45
63 -70 106 -62 106 2 0 46 -34 97 -76 51 -41 110 -85 132 -96 27 -13 36 -22
28 -28 -10 -5 -8 -9 4 -13 9 -4 13 -3 10 3 -9 15 8 12 58 -10 99 -44 255 -48
390 -10 36 11 37 12 37 58 l0 47 -88 0 c-106 1 -163 16 -265 68 -145 74 -276
219 -419 461 -144 244 -239 492 -327 855 -31 129 -31 146 8 173 10 7 94 83
187 169 330 306 632 538 842 649 60 32 62 34 62 72 l0 39 -32 -17 c-79 -40
-274 -159 -377 -230 -90 -62 -237 -175 -406 -313 -19 -15 -19 -15 -5 3 11 14
11 17 2 12 -7 -4 -16 -16 -20 -25 -4 -9 -52 -58 -107 -108 -55 -50 -203 -190
-330 -311 -126 -121 -231 -219 -233 -217 -2 2 4 17 12 34 9 16 16 39 16 49 0
47 168 499 204 547 12 17 16 17 72 -3 32 -11 61 -16 62 -11 2 5 14 9 27 9 36
0 38 16 5 30 -37 15 -49 30 -18 22 20 -5 21 -4 10 11 -8 9 -22 19 -33 22 -10
4 -19 13 -19 21 0 8 -7 14 -16 14 -12 0 -14 3 -6 13 13 16 27 85 15 72 -6 -5
-17 -28 -26 -51 -15 -39 -15 -42 6 -64 l22 -24 -25 16 c-16 11 -24 24 -23 40
2 28 71 183 79 176 3 -3 -3 -22 -12 -42 -14 -28 -15 -39 -6 -48 9 -9 12 -5 12
20 0 18 5 32 10 32 6 0 10 10 10 22 0 22 0 22 25 -4 14 -15 25 -30 25 -33 0
-3 10 -16 21 -28 l21 -22 -12 25 c-7 14 -22 38 -33 53 -10 16 -17 31 -14 34 3
3 25 -22 49 -55 46 -65 55 -71 60 -46 2 12 10 7 28 -18 43 -56 26 -179 -28
-203 -12 -5 -22 -13 -22 -17 0 -21 42 0 115 57 58 45 66 49 58 28 -6 -16 -5
-16 10 -4 9 7 17 19 17 26 0 6 10 20 22 31 12 10 18 13 13 5 -5 -10 -4 -12 3
-7 7 4 12 12 12 17 0 6 27 41 60 77 72 80 81 107 10 32 -53 -56 -77 -62 -41
-11 28 39 95 94 99 82 2 -5 58 44 125 109 67 65 119 122 115 126 -4 4 -54 1
-110 -6 -57 -7 -137 -16 -178 -20 -67 -6 -67 -8 5 -15 45 -4 48 -7 13 -16 -39
-9 -225 13 -238 28 -4 5 4 69 16 143 13 74 25 185 27 247 2 67 8 118 16 126
14 18 -8 30 -30 16 -12 -7 -12 -10 -1 -18 11 -6 10 -10 -3 -15 -10 -3 -24 -1
-31 5 -11 9 -22 8 -46 -4 -18 -8 -67 -27 -108 -40 -159 -54 -235 -87 -255
-112 -12 -14 -30 -25 -42 -25 -26 0 -59 40 -73 89 -20 69 -50 263 -50 321 0
60 -10 80 -28 57z m7 -286 c10 -20 21 -55 25 -78 5 -35 3 -44 -14 -56 -20 -14
-66 -12 -75 4 -3 4 -12 6 -20 2 -19 -7 -19 5 0 51 12 27 23 38 45 43 35 6 37
14 12 37 -18 15 -19 15 -30 -9 -6 -14 -16 -25 -22 -25 -6 0 -9 3 -7 8 2 4 11
24 21 45 15 32 20 36 32 26 9 -7 24 -29 33 -48z m579 -109 c3 -21 -39 -270
-56 -336 l-8 -29 -69 62 c-39 35 -107 85 -153 113 -95 59 -112 75 -92 88 14 9
93 39 240 93 109 40 134 42 138 9z m-600 -271 c31 -21 83 -53 114 -70 31 -18
61 -38 68 -46 8 -10 -3 -39 -51 -130 -69 -131 -55 -127 -153 -42 -35 31 -60
46 -68 41 -7 -4 -10 -4 -6 1 4 4 -3 22 -16 39 -37 49 -75 130 -82 177 -9 54 9
69 83 69 46 0 62 -6 111 -39z m922 -202 c0 -6 -33 -46 -72 -90 -40 -44 -79
-91 -86 -105 -19 -36 -32 -29 -33 19 -1 23 -3 34 -6 25 -4 -18 -23 -26 -23
-10 0 4 -3 18 -7 31 -4 17 -3 22 5 17 17 -10 15 -1 -6 34 -10 16 -21 27 -25
24 -3 -3 -4 1 -3 10 3 23 9 27 68 41 67 16 188 19 188 4z m-268 -217 c14 -26
16 -36 6 -51 -9 -15 -9 -23 0 -34 10 -11 9 -17 -3 -27 -25 -21 -59 30 -79 123
-6 27 -5 28 25 25 25 -2 37 -11 51 -36z m-835 -1984 c-3 -8 -6 -5 -6 6 -1 11
2 17 5 13 3 -3 4 -12 1 -19z"/>
<path d="M3571 4284 c0 -11 3 -14 6 -6 3 7 2 16 -1 19 -3 4 -6 -2 -5 -13z"/>
<path d="M3485 4041 c17 -10 34 -16 39 -13 13 7 -24 32 -48 32 -18 0 -16 -3 9
-19z"/>
<path d="M3625 4000 c3 -5 14 -10 23 -10 15 0 15 2 2 10 -20 13 -33 13 -25 0z"/>
<path d="M4208 3833 c7 -3 16 -2 19 1 4 3 -2 6 -13 5 -11 0 -14 -3 -6 -6z"/>
<path d="M1006 3782 c-3 -5 -10 -40 -16 -78 -6 -38 -17 -96 -25 -129 -8 -33
-24 -105 -36 -160 -12 -55 -27 -127 -35 -160 -14 -68 -71 -276 -145 -535 -102
-354 -181 -561 -310 -808 -97 -188 -164 -287 -243 -358 -57 -52 -147 -104
-180 -104 -12 0 -16 -11 -16 -45 l0 -45 70 0 c131 0 236 63 359 217 119 148
123 152 115 123 -3 -14 -6 -37 -6 -51 1 -19 -4 -26 -16 -25 -10 0 -17 -6 -17
-16 0 -28 -183 -300 -197 -292 -6 4 -8 3 -5 -4 16 -24 -183 -249 -289 -326 -9
-7 -15 -18 -13 -25 3 -7 26 6 57 34 30 25 61 51 71 58 23 17 135 147 211 246
35 44 66 78 70 76 4 -3 7 3 6 13 0 9 4 16 11 15 16 -3 95 123 148 237 9 19 21
42 26 50 5 8 12 22 15 30 3 8 14 33 24 56 37 83 130 313 130 321 -1 12 -38
-64 -70 -142 -44 -110 -130 -289 -135 -283 -3 3 14 47 39 99 146 313 246 582
407 1093 42 134 44 138 51 100 12 -68 10 -104 -7 -104 -8 0 -15 6 -15 13 -1
21 -40 -65 -51 -113 -6 -25 -27 -94 -46 -154 -18 -60 -32 -111 -29 -114 3 -3
8 1 10 9 18 58 39 117 47 131 5 10 9 25 9 33 0 8 4 23 9 33 6 9 19 46 30 82
l20 65 0 -60 c-1 -106 1 -125 12 -125 8 0 9 17 4 55 -4 37 -3 55 4 55 7 0 11
-29 11 -77 0 -108 26 -329 50 -423 82 -333 328 -406 564 -167 111 111 192 290
266 587 46 183 57 240 80 420 13 95 18 120 20 85 3 -100 17 -11 23 145 5 152
5 154 -7 70 -13 -85 -13 -84 -9 75 3 88 1 165 -4 171 -15 21 -144 114 -158
114 -9 0 -15 -23 -19 -82 -41 -581 -49 -668 -77 -806 -13 -65 -29 -59 -29 11
0 86 -16 86 -23 0 -13 -200 -102 -544 -180 -698 -57 -114 -105 -155 -181 -155
-150 0 -246 289 -246 743 0 204 9 314 52 664 34 281 34 293 -17 293 -13 0 -25
3 -27 8 -4 9 -97 42 -120 42 -9 0 -19 -4 -22 -8z m-515 -2275 c-10 -9 -11 -8
-5 6 3 10 9 15 12 12 3 -3 0 -11 -7 -18z m-45 -79 c-18 -26 -22 -17 -5 14 6
11 13 17 16 15 3 -3 -2 -16 -11 -29z"/>
<path d="M2658 3703 c-33 -21 -48 -53 -48 -101 1 -101 146 -141 212 -58 21 25
23 81 5 116 -26 52 -117 75 -169 43z"/>
<path d="M1215 3538 c-7 -25 -12 -129 -4 -116 9 16 20 128 13 128 -2 0 -6 -6
-9 -12z"/>
<path d="M3045 3497 c-18 -15 -28 -36 -32 -64 -5 -37 -2 -45 25 -73 52 -52
129 -34 167 40 42 82 -87 161 -160 97z"/>
<path d="M1192 3365 c-1 -16 -5 -61 -8 -100 -4 -53 -3 -66 6 -53 6 11 9 51 7
100 -1 46 -4 70 -5 53z"/>
<path d="M3713 3277 c-86 -203 -106 -255 -142 -361 -23 -65 -41 -130 -41 -143
0 -25 1 -25 43 13 52 46 75 76 52 68 -8 -4 -15 -1 -15 6 0 6 -5 8 -10 5 -8 -5
-8 -11 0 -20 7 -8 7 -15 1 -19 -5 -3 -12 0 -14 6 -3 7 -6 3 -6 -8 -1 -12 -8
-27 -16 -34 -13 -11 -14 -8 -8 21 3 19 10 36 15 37 4 2 8 15 8 28 0 13 4 32 9
42 24 43 41 86 41 102 0 9 4 20 8 25 5 6 17 36 27 68 11 31 23 57 27 57 4 0 8
8 8 19 0 10 7 24 15 31 8 7 15 22 16 34 0 11 3 15 6 9 8 -21 25 -14 18 7 -6
19 10 30 17 11 2 -5 23 -12 48 -15 l45 -7 -65 36 c-35 19 -64 35 -65 35 0 0
-10 -24 -22 -53z"/>
<path d="M4254 3268 l-29 -33 33 29 c17 17 32 31 32 33 0 8 -8 1 -36 -29z"/>
<path d="M2379 3168 c-31 -42 -149 -276 -149 -296 0 -5 -7 -16 -17 -23 -15
-13 -16 -11 -11 14 3 15 1 27 -3 27 -5 0 -9 -4 -9 -8 0 -5 -9 -49 -19 -98 -28
-132 -49 -287 -66 -483 l-14 -174 70 -79 c39 -43 77 -78 84 -78 35 0 235 265
357 472 35 59 67 108 72 108 5 0 6 -15 2 -32 -22 -109 -57 -377 -53 -403 3
-17 26 -70 53 -118 42 -78 52 -88 91 -103 27 -11 56 -14 80 -11 43 7 146 57
151 73 4 16 -30 27 -39 13 -18 -29 -129 59 -116 92 3 10 7 8 12 -6 12 -30 47
-65 64 -64 14 0 14 1 1 6 -21 9 -44 33 -47 52 -1 8 -10 21 -19 28 -10 7 -15
16 -11 19 3 3 22 -7 41 -22 30 -25 33 -30 18 -36 -13 -5 -11 -7 9 -7 14 -1 37
9 50 20 22 19 22 21 3 15 -15 -4 -25 1 -40 21 -36 50 -44 91 -42 227 l2 131 6
-140 c6 -119 21 -208 34 -194 2 2 -2 42 -9 89 -7 47 -11 90 -9 95 2 6 8 61 13
124 6 63 15 119 21 125 5 5 10 27 10 48 0 21 4 46 9 56 6 9 13 34 16 55 3 20
10 37 15 37 6 0 10 12 10 26 0 36 31 125 41 118 5 -3 9 13 9 35 0 23 -2 41 -3
41 -12 0 -85 -224 -126 -384 -20 -77 -31 -104 -31 -75 0 27 59 245 90 334 18
50 47 123 66 164 19 41 31 78 27 81 -5 4 -45 32 -90 63 -83 57 -110 68 -117
45 -108 -366 -273 -686 -453 -882 -47 -50 -74 -72 -58 -46 3 6 1 10 -4 10 -14
0 -14 51 0 87 6 15 15 48 19 73 17 86 22 105 36 137 8 17 14 38 14 47 0 9 5
16 10 16 6 0 10 11 10 24 0 14 5 28 10 31 6 3 10 15 10 25 0 10 7 25 15 34 8
8 15 24 15 35 0 12 5 21 10 21 6 0 10 6 10 14 0 17 32 80 43 84 4 2 7 12 7 22
0 10 4 21 9 24 5 3 11 17 13 31 5 24 4 24 -12 10 -16 -15 -27 -36 -93 -190
-82 -188 -145 -410 -148 -522 -2 -59 -19 -86 -19 -30 0 144 132 546 240 731
63 108 64 105 -30 170 -44 31 -87 59 -95 62 -8 4 -26 -11 -46 -38z"/>
<path d="M1168 3146 c-5 -27 -7 -103 -7 -170 1 -111 2 -116 10 -61 5 33 8 110
7 170 -3 92 -4 102 -10 61z"/>
<path d="M2042 3120 c-1 -14 -5 -50 -8 -80 -5 -42 -4 -52 5 -44 8 7 11 36 8
80 -1 38 -4 58 -5 44z"/>
<path d="M2019 2969 c0 -8 -4 -35 -8 -61 -4 -27 -4 -48 0 -48 9 0 24 109 15
117 -3 4 -6 0 -7 -8z"/>
<path d="M1992 2816 c-1 -10 -13 -66 -27 -125 -37 -154 -37 -153 -25 -146 5 3
10 18 10 33 0 15 7 40 15 56 8 15 15 45 15 65 0 20 5 42 11 48 6 6 9 28 6 49
-2 22 -4 31 -5 20z"/>
<path d="M3932 2740 c0 -14 2 -19 5 -12 2 6 2 18 0 25 -3 6 -5 1 -5 -13z"/>
<path d="M3941 2699 c-2 -17 82 -286 100 -317 11 -20 18 -30 15 -22 -94 296
-114 354 -115 339z"/>
<path d="M3522 2553 c-44 -49 -79 -90 -77 -92 2 -2 21 15 43 38 21 23 43 41
48 42 8 0 77 99 69 99 -1 0 -39 -39 -83 -87z"/>
<path d="M3681 2610 c0 -8 4 -24 9 -35 5 -13 9 -14 9 -5 0 8 -4 24 -9 35 -5
13 -9 14 -9 5z"/>
<path d="M1901 2460 c-13 -41 -44 -115 -68 -165 -24 -49 -35 -79 -24 -65 11
14 29 44 38 67 10 24 21 43 26 43 4 0 7 8 7 18 0 9 7 30 15 46 8 15 15 36 15
45 0 9 5 22 11 28 6 6 9 21 7 34 -2 17 -10 1 -27 -51z"/>
<path d="M3520 2510 c0 -5 4 -10 9 -10 6 0 13 5 16 10 3 6 -1 10 -9 10 -9 0
-16 -4 -16 -10z"/>
<path d="M901 2473 c0 -6 -4 -20 -7 -30 -5 -14 -4 -15 5 -7 7 7 11 20 8 30 -3
11 -5 14 -6 7z"/>
<path d="M876 2405 c-3 -9 -6 -22 -5 -28 0 -7 5 -1 10 12 5 13 8 26 5 28 -2 2
-6 -3 -10 -12z"/>
<path d="M2374 2298 l-19 -23 23 19 c21 18 27 26 19 26 -2 0 -12 -10 -23 -22z"/>
<path d="M4070 2305 c0 -5 5 -17 10 -25 5 -8 10 -10 10 -5 0 6 -5 17 -10 25
-5 8 -10 11 -10 5z"/>
<path d="M801 2194 c0 -11 3 -14 6 -6 3 7 2 16 -1 19 -3 4 -6 -2 -5 -13z"/>
<path d="M776 2135 c-9 -26 -7 -32 5 -12 6 10 9 21 6 23 -2 3 -7 -2 -11 -11z"/>
<path d="M2372 2078 c-7 -7 -12 -16 -12 -21 0 -5 7 -1 16 8 9 9 14 18 12 20
-2 3 -10 -1 -16 -7z"/>
<path d="M2319 2013 l-24 -28 28 24 c25 23 32 31 24 31 -2 0 -14 -12 -28 -27z"/>
<path d="M2360 2031 c0 -5 5 -13 10 -16 6 -3 10 -2 10 4 0 5 -4 13 -10 16 -5
3 -10 2 -10 -4z"/>
<path d="M2975 1916 c-11 -7 -45 -22 -75 -32 -39 -13 -49 -19 -33 -22 21 -3
80 22 118 52 25 19 17 21 -10 2z"/>
<path d="M4392 1394 c10 -10 20 -16 22 -13 3 3 -5 11 -17 18 -21 13 -21 12 -5
-5z"/>
<path d="M4450 1356 c0 -2 7 -7 16 -10 8 -3 12 -2 9 4 -6 10 -25 14 -25 6z"/>
<path d="M4608 1283 c7 -3 16 -2 19 1 4 3 -2 6 -13 5 -11 0 -14 -3 -6 -6z"/>
<path d="M4728 1263 c18 -2 45 -2 60 0 15 2 0 4 -33 4 -33 0 -45 -2 -27 -4z"/>
<path d="M4678 1128 c5 -5 16 -8 23 -6 8 3 3 7 -10 11 -17 4 -21 3 -13 -5z"/>
</g>
</svg>
